<svg width="251" height="50" viewBox="0 0 251 50" fill="none" xmlns="http://www.w3.org/2000/svg">
<rect width="251" height="50" rx="10" fill="black"/>
<path d="M46.1102 30V20.2H47.5942V28.824H52.0462V30H46.1102ZM54.4274 21.74C54.1474 21.74 53.9141 21.656 53.7274 21.488C53.5501 21.3107 53.4614 21.0913 53.4614 20.83C53.4614 20.5687 53.5501 20.354 53.7274 20.186C53.9141 20.0087 54.1474 19.92 54.4274 19.92C54.7074 19.92 54.9361 20.0087 55.1134 20.186C55.3001 20.354 55.3934 20.5687 55.3934 20.83C55.3934 21.0913 55.3001 21.3107 55.1134 21.488C54.9361 21.656 54.7074 21.74 54.4274 21.74ZM53.6854 30V23.056H55.1694V30H53.6854ZM57.1284 30V23.056H58.4444L58.5564 24.274C58.7711 23.8447 59.0838 23.5087 59.4944 23.266C59.9144 23.014 60.3951 22.888 60.9364 22.888C61.7764 22.888 62.4344 23.1493 62.9104 23.672C63.3958 24.1947 63.6384 24.974 63.6384 26.01V30H62.1684V26.164C62.1684 24.82 61.6178 24.148 60.5164 24.148C59.9658 24.148 59.5084 24.344 59.1444 24.736C58.7898 25.128 58.6124 25.688 58.6124 26.416V30H57.1284ZM65.3862 30V19.92H66.8702V25.926L69.5302 23.056H71.3082L68.3542 26.206L71.7422 30H69.8662L66.8702 26.444V30H65.3862ZM79.7094 30.168C79.0281 30.168 78.4168 30.014 77.8754 29.706C77.3434 29.398 76.9234 28.9733 76.6154 28.432C76.3168 27.8813 76.1674 27.2467 76.1674 26.528C76.1674 25.8093 76.3168 25.1793 76.6154 24.638C76.9234 24.0873 77.3434 23.658 77.8754 23.35C78.4168 23.042 79.0281 22.888 79.7094 22.888C80.5681 22.888 81.2868 23.112 81.8654 23.56C82.4534 24.008 82.8314 24.6147 82.9994 25.38H81.4454C81.3521 24.9973 81.1468 24.6987 80.8294 24.484C80.5121 24.2693 80.1388 24.162 79.7094 24.162C79.3454 24.162 79.0094 24.2553 78.7014 24.442C78.3934 24.6193 78.1461 24.8853 77.9594 25.24C77.7728 25.5853 77.6794 26.0147 77.6794 26.528C77.6794 27.0413 77.7728 27.4753 77.9594 27.83C78.1461 28.1753 78.3934 28.4413 78.7014 28.628C79.0094 28.8147 79.3454 28.908 79.7094 28.908C80.1388 28.908 80.5121 28.8007 80.8294 28.586C81.1468 28.3713 81.3521 28.068 81.4454 27.676H82.9994C82.8408 28.4227 82.4674 29.0247 81.8794 29.482C81.2914 29.9393 80.5681 30.168 79.7094 30.168ZM87.8569 30.168C87.1942 30.168 86.5969 30.0187 86.0649 29.72C85.5422 29.412 85.1269 28.9873 84.8189 28.446C84.5109 27.8953 84.3569 27.256 84.3569 26.528C84.3569 25.8 84.5109 25.1653 84.8189 24.624C85.1362 24.0733 85.5609 23.6487 86.0929 23.35C86.6249 23.042 87.2176 22.888 87.8709 22.888C88.5336 22.888 89.1262 23.042 89.6489 23.35C90.1809 23.6487 90.6009 24.0733 90.9089 24.624C91.2262 25.1653 91.3849 25.8 91.3849 26.528C91.3849 27.256 91.2262 27.8953 90.9089 28.446C90.6009 28.9873 90.1809 29.412 89.6489 29.72C89.1169 30.0187 88.5196 30.168 87.8569 30.168ZM87.8569 28.894C88.2116 28.894 88.5382 28.8053 88.8369 28.628C89.1449 28.4507 89.3922 28.1893 89.5789 27.844C89.7656 27.4893 89.8589 27.0507 89.8589 26.528C89.8589 26.0053 89.7656 25.5713 89.5789 25.226C89.4016 24.8713 89.1589 24.6053 88.8509 24.428C88.5522 24.2507 88.2256 24.162 87.8709 24.162C87.5162 24.162 87.1849 24.2507 86.8769 24.428C86.5782 24.6053 86.3356 24.8713 86.1489 25.226C85.9622 25.5713 85.8689 26.0053 85.8689 26.528C85.8689 27.0507 85.9622 27.4893 86.1489 27.844C86.3356 28.1893 86.5782 28.4507 86.8769 28.628C87.1756 28.8053 87.5022 28.894 87.8569 28.894ZM92.9898 33.08V23.056H94.3198L94.4738 24.134C94.6978 23.8073 95.0058 23.518 95.3978 23.266C95.7898 23.014 96.2938 22.888 96.9098 22.888C97.5818 22.888 98.1744 23.0467 98.6878 23.364C99.2011 23.6813 99.6024 24.1153 99.8918 24.666C100.19 25.2167 100.34 25.842 100.34 26.542C100.34 27.242 100.19 27.8673 99.8918 28.418C99.6024 28.9593 99.2011 29.3887 98.6878 29.706C98.1744 30.014 97.5771 30.168 96.8958 30.168C96.3544 30.168 95.8738 30.0607 95.4538 29.846C95.0431 29.6313 94.7164 29.328 94.4738 28.936V33.08H92.9898ZM96.6438 28.88C97.2784 28.88 97.8011 28.6653 98.2118 28.236C98.6224 27.7973 98.8278 27.228 98.8278 26.528C98.8278 26.0707 98.7344 25.6647 98.5478 25.31C98.3611 24.9553 98.1044 24.68 97.7778 24.484C97.4511 24.2787 97.0731 24.176 96.6438 24.176C96.0091 24.176 95.4864 24.3953 95.0758 24.834C94.6744 25.2727 94.4738 25.8373 94.4738 26.528C94.4738 27.228 94.6744 27.7973 95.0758 28.236C95.4864 28.6653 96.0091 28.88 96.6438 28.88ZM102.785 21.74C102.505 21.74 102.272 21.656 102.085 21.488C101.908 21.3107 101.819 21.0913 101.819 20.83C101.819 20.5687 101.908 20.354 102.085 20.186C102.272 20.0087 102.505 19.92 102.785 19.92C103.065 19.92 103.294 20.0087 103.471 20.186C103.658 20.354 103.751 20.5687 103.751 20.83C103.751 21.0913 103.658 21.3107 103.471 21.488C103.294 21.656 103.065 21.74 102.785 21.74ZM102.043 30V23.056H103.527V30H102.043ZM108.734 30.168C108.053 30.168 107.446 30.0187 106.914 29.72C106.391 29.412 105.981 28.9873 105.682 28.446C105.383 27.9047 105.234 27.2747 105.234 26.556C105.234 25.828 105.379 25.1887 105.668 24.638C105.967 24.0873 106.377 23.658 106.9 23.35C107.432 23.042 108.048 22.888 108.748 22.888C109.429 22.888 110.022 23.042 110.526 23.35C111.03 23.6487 111.422 24.05 111.702 24.554C111.982 25.058 112.122 25.6133 112.122 26.22C112.122 26.3133 112.117 26.416 112.108 26.528C112.108 26.6307 112.103 26.7473 112.094 26.878H106.69C106.737 27.55 106.956 28.0633 107.348 28.418C107.749 28.7633 108.211 28.936 108.734 28.936C109.154 28.936 109.504 28.8427 109.784 28.656C110.073 28.46 110.288 28.1987 110.428 27.872H111.912C111.725 28.5253 111.352 29.0713 110.792 29.51C110.241 29.9487 109.555 30.168 108.734 30.168ZM108.734 24.106C108.239 24.106 107.801 24.2553 107.418 24.554C107.035 24.8433 106.802 25.282 106.718 25.87H110.638C110.61 25.3287 110.419 24.8993 110.064 24.582C109.709 24.2647 109.266 24.106 108.734 24.106ZM116.826 30.168C116.154 30.168 115.561 30.0093 115.048 29.692C114.534 29.3747 114.133 28.9407 113.844 28.39C113.554 27.8393 113.41 27.214 113.41 26.514C113.41 25.814 113.554 25.1933 113.844 24.652C114.133 24.1013 114.534 23.672 115.048 23.364C115.57 23.0467 116.168 22.888 116.84 22.888C117.39 22.888 117.871 22.9953 118.282 23.21C118.702 23.4247 119.028 23.728 119.262 24.12V19.92H120.746V30H119.416L119.262 28.922C119.038 29.2487 118.73 29.538 118.338 29.79C117.946 30.042 117.442 30.168 116.826 30.168ZM117.092 28.88C117.726 28.88 118.244 28.6607 118.646 28.222C119.056 27.7833 119.262 27.2187 119.262 26.528C119.262 25.828 119.056 25.2633 118.646 24.834C118.244 24.3953 117.726 24.176 117.092 24.176C116.457 24.176 115.934 24.3953 115.524 24.834C115.113 25.2633 114.908 25.828 114.908 26.528C114.908 26.9853 115.001 27.3913 115.188 27.746C115.374 28.1007 115.631 28.3807 115.958 28.586C116.294 28.782 116.672 28.88 117.092 28.88ZM129.056 30C128.375 30 127.833 29.8367 127.432 29.51C127.031 29.174 126.83 28.5813 126.83 27.732V24.302H125.64V23.056H126.83L127.012 21.292H128.314V23.056H130.274V24.302H128.314V27.732C128.314 28.1147 128.393 28.3807 128.552 28.53C128.72 28.67 129.005 28.74 129.406 28.74H130.204V30H129.056ZM134.874 30.168C134.212 30.168 133.614 30.0187 133.082 29.72C132.56 29.412 132.144 28.9873 131.836 28.446C131.528 27.8953 131.374 27.256 131.374 26.528C131.374 25.8 131.528 25.1653 131.836 24.624C132.154 24.0733 132.578 23.6487 133.11 23.35C133.642 23.042 134.235 22.888 134.888 22.888C135.551 22.888 136.144 23.042 136.666 23.35C137.198 23.6487 137.618 24.0733 137.926 24.624C138.244 25.1653 138.402 25.8 138.402 26.528C138.402 27.256 138.244 27.8953 137.926 28.446C137.618 28.9873 137.198 29.412 136.666 29.72C136.134 30.0187 135.537 30.168 134.874 30.168ZM134.874 28.894C135.229 28.894 135.556 28.8053 135.854 28.628C136.162 28.4507 136.41 28.1893 136.596 27.844C136.783 27.4893 136.876 27.0507 136.876 26.528C136.876 26.0053 136.783 25.5713 136.596 25.226C136.419 24.8713 136.176 24.6053 135.868 24.428C135.57 24.2507 135.243 24.162 134.888 24.162C134.534 24.162 134.202 24.2507 133.894 24.428C133.596 24.6053 133.353 24.8713 133.166 25.226C132.98 25.5713 132.886 26.0053 132.886 26.528C132.886 27.0507 132.98 27.4893 133.166 27.844C133.353 28.1893 133.596 28.4507 133.894 28.628C134.193 28.8053 134.52 28.894 134.874 28.894ZM146.825 30.168C146.143 30.168 145.532 30.014 144.991 29.706C144.459 29.398 144.039 28.9733 143.731 28.432C143.432 27.8813 143.283 27.2467 143.283 26.528C143.283 25.8093 143.432 25.1793 143.731 24.638C144.039 24.0873 144.459 23.658 144.991 23.35C145.532 23.042 146.143 22.888 146.825 22.888C147.683 22.888 148.402 23.112 148.981 23.56C149.569 24.008 149.947 24.6147 150.115 25.38H148.561C148.467 24.9973 148.262 24.6987 147.945 24.484C147.627 24.2693 147.254 24.162 146.825 24.162C146.461 24.162 146.125 24.2553 145.817 24.442C145.509 24.6193 145.261 24.8853 145.075 25.24C144.888 25.5853 144.795 26.0147 144.795 26.528C144.795 27.0413 144.888 27.4753 145.075 27.83C145.261 28.1753 145.509 28.4413 145.817 28.628C146.125 28.8147 146.461 28.908 146.825 28.908C147.254 28.908 147.627 28.8007 147.945 28.586C148.262 28.3713 148.467 28.068 148.561 27.676H150.115C149.956 28.4227 149.583 29.0247 148.995 29.482C148.407 29.9393 147.683 30.168 146.825 30.168ZM151.724 30V19.92H153.208V30H151.724ZM155.927 21.74C155.647 21.74 155.414 21.656 155.227 21.488C155.05 21.3107 154.961 21.0913 154.961 20.83C154.961 20.5687 155.05 20.354 155.227 20.186C155.414 20.0087 155.647 19.92 155.927 19.92C156.207 19.92 156.436 20.0087 156.613 20.186C156.8 20.354 156.893 20.5687 156.893 20.83C156.893 21.0913 156.8 21.3107 156.613 21.488C156.436 21.656 156.207 21.74 155.927 21.74ZM155.185 30V23.056H156.669V30H155.185ZM158.628 33.08V23.056H159.958L160.112 24.134C160.336 23.8073 160.644 23.518 161.036 23.266C161.428 23.014 161.932 22.888 162.548 22.888C163.22 22.888 163.813 23.0467 164.326 23.364C164.84 23.6813 165.241 24.1153 165.53 24.666C165.829 25.2167 165.978 25.842 165.978 26.542C165.978 27.242 165.829 27.8673 165.53 28.418C165.241 28.9593 164.84 29.3887 164.326 29.706C163.813 30.014 163.216 30.168 162.534 30.168C161.993 30.168 161.512 30.0607 161.092 29.846C160.682 29.6313 160.355 29.328 160.112 28.936V33.08H158.628ZM162.282 28.88C162.917 28.88 163.44 28.6653 163.85 28.236C164.261 27.7973 164.466 27.228 164.466 26.528C164.466 26.0707 164.373 25.6647 164.186 25.31C164 24.9553 163.743 24.68 163.416 24.484C163.09 24.2787 162.712 24.176 162.282 24.176C161.648 24.176 161.125 24.3953 160.714 24.834C160.313 25.2727 160.112 25.8373 160.112 26.528C160.112 27.228 160.313 27.7973 160.714 28.236C161.125 28.6653 161.648 28.88 162.282 28.88ZM171.49 30.168C170.948 30.168 170.468 30.0607 170.048 29.846C169.637 29.6313 169.31 29.328 169.068 28.936L168.914 30H167.584V19.92H169.068V24.134C169.292 23.8073 169.6 23.518 169.992 23.266C170.384 23.014 170.888 22.888 171.504 22.888C172.176 22.888 172.768 23.0467 173.282 23.364C173.795 23.6813 174.196 24.1153 174.486 24.666C174.784 25.2167 174.934 25.842 174.934 26.542C174.934 27.242 174.784 27.8673 174.486 28.418C174.196 28.9593 173.795 29.3887 173.282 29.706C172.768 30.014 172.171 30.168 171.49 30.168ZM171.238 28.88C171.872 28.88 172.395 28.6653 172.806 28.236C173.216 27.7973 173.422 27.228 173.422 26.528C173.422 26.0707 173.328 25.6647 173.142 25.31C172.955 24.9553 172.698 24.68 172.372 24.484C172.045 24.2787 171.667 24.176 171.238 24.176C170.603 24.176 170.08 24.3953 169.67 24.834C169.268 25.2727 169.068 25.8373 169.068 26.528C169.068 27.228 169.268 27.7973 169.67 28.236C170.08 28.6653 170.603 28.88 171.238 28.88ZM179.787 30.168C179.124 30.168 178.527 30.0187 177.995 29.72C177.472 29.412 177.057 28.9873 176.749 28.446C176.441 27.8953 176.287 27.256 176.287 26.528C176.287 25.8 176.441 25.1653 176.749 24.624C177.066 24.0733 177.491 23.6487 178.023 23.35C178.555 23.042 179.147 22.888 179.801 22.888C180.463 22.888 181.056 23.042 181.579 23.35C182.111 23.6487 182.531 24.0733 182.839 24.624C183.156 25.1653 183.315 25.8 183.315 26.528C183.315 27.256 183.156 27.8953 182.839 28.446C182.531 28.9873 182.111 29.412 181.579 29.72C181.047 30.0187 180.449 30.168 179.787 30.168ZM179.787 28.894C180.141 28.894 180.468 28.8053 180.767 28.628C181.075 28.4507 181.322 28.1893 181.509 27.844C181.695 27.4893 181.789 27.0507 181.789 26.528C181.789 26.0053 181.695 25.5713 181.509 25.226C181.331 24.8713 181.089 24.6053 180.781 24.428C180.482 24.2507 180.155 24.162 179.801 24.162C179.446 24.162 179.115 24.2507 178.807 24.428C178.508 24.6053 178.265 24.8713 178.079 25.226C177.892 25.5713 177.799 26.0053 177.799 26.528C177.799 27.0507 177.892 27.4893 178.079 27.844C178.265 28.1893 178.508 28.4507 178.807 28.628C179.105 28.8053 179.432 28.894 179.787 28.894ZM187.271 30.168C186.683 30.168 186.198 30.07 185.815 29.874C185.433 29.678 185.148 29.4213 184.961 29.104C184.775 28.7773 184.681 28.4227 184.681 28.04C184.681 27.368 184.943 26.836 185.465 26.444C185.988 26.052 186.735 25.856 187.705 25.856H189.525V25.73C189.525 25.1887 189.376 24.7827 189.077 24.512C188.788 24.2413 188.41 24.106 187.943 24.106C187.533 24.106 187.173 24.2087 186.865 24.414C186.567 24.61 186.385 24.904 186.319 25.296H184.835C184.882 24.792 185.05 24.3627 185.339 24.008C185.638 23.644 186.011 23.3687 186.459 23.182C186.917 22.986 187.416 22.888 187.957 22.888C188.928 22.888 189.679 23.1447 190.211 23.658C190.743 24.162 191.009 24.8527 191.009 25.73V30H189.721L189.595 28.81C189.399 29.1927 189.115 29.5147 188.741 29.776C188.368 30.0373 187.878 30.168 187.271 30.168ZM187.565 28.964C187.967 28.964 188.303 28.8707 188.573 28.684C188.853 28.488 189.068 28.2313 189.217 27.914C189.376 27.5967 189.474 27.2467 189.511 26.864H187.859C187.271 26.864 186.851 26.9667 186.599 27.172C186.357 27.3773 186.235 27.634 186.235 27.942C186.235 28.2593 186.352 28.5113 186.585 28.698C186.828 28.8753 187.155 28.964 187.565 28.964ZM192.74 30V23.056H194.07L194.196 24.372C194.438 23.9147 194.774 23.5553 195.204 23.294C195.642 23.0233 196.17 22.888 196.786 22.888V24.442H196.38C195.969 24.442 195.6 24.512 195.274 24.652C194.956 24.7827 194.7 25.0113 194.504 25.338C194.317 25.6553 194.224 26.0987 194.224 26.668V30H192.74ZM201.031 30.168C200.359 30.168 199.766 30.0093 199.253 29.692C198.739 29.3747 198.338 28.9407 198.049 28.39C197.759 27.8393 197.615 27.214 197.615 26.514C197.615 25.814 197.759 25.1933 198.049 24.652C198.338 24.1013 198.739 23.672 199.253 23.364C199.775 23.0467 200.373 22.888 201.045 22.888C201.595 22.888 202.076 22.9953 202.487 23.21C202.907 23.4247 203.233 23.728 203.467 24.12V19.92H204.951V30H203.621L203.467 28.922C203.243 29.2487 202.935 29.538 202.543 29.79C202.151 30.042 201.647 30.168 201.031 30.168ZM201.297 28.88C201.931 28.88 202.449 28.6607 202.851 28.222C203.261 27.7833 203.467 27.2187 203.467 26.528C203.467 25.828 203.261 25.2633 202.851 24.834C202.449 24.3953 201.931 24.176 201.297 24.176C200.662 24.176 200.139 24.3953 199.729 24.834C199.318 25.2633 199.113 25.828 199.113 26.528C199.113 26.9853 199.206 27.3913 199.393 27.746C199.579 28.1007 199.836 28.3807 200.163 28.586C200.499 28.782 200.877 28.88 201.297 28.88Z" fill="white"/>
</svg>
