<svg width="262" height="45" viewBox="0 0 262 45" fill="none" xmlns="http://www.w3.org/2000/svg">
<rect x="0.5" width="261" height="45" rx="10" fill="black"/>
<path d="M51.6102 27.5V17.7H53.0942V26.324H57.5462V27.5H51.6102ZM59.9274 19.24C59.6474 19.24 59.4141 19.156 59.2274 18.988C59.0501 18.8107 58.9614 18.5913 58.9614 18.33C58.9614 18.0687 59.0501 17.854 59.2274 17.686C59.4141 17.5087 59.6474 17.42 59.9274 17.42C60.2074 17.42 60.4361 17.5087 60.6134 17.686C60.8001 17.854 60.8934 18.0687 60.8934 18.33C60.8934 18.5913 60.8001 18.8107 60.6134 18.988C60.4361 19.156 60.2074 19.24 59.9274 19.24ZM59.1854 27.5V20.556H60.6694V27.5H59.1854ZM62.6284 27.5V20.556H63.9444L64.0564 21.774C64.2711 21.3447 64.5838 21.0087 64.9944 20.766C65.4144 20.514 65.8951 20.388 66.4364 20.388C67.2764 20.388 67.9344 20.6493 68.4104 21.172C68.8958 21.6947 69.1384 22.474 69.1384 23.51V27.5H67.6684V23.664C67.6684 22.32 67.1178 21.648 66.0164 21.648C65.4658 21.648 65.0084 21.844 64.6444 22.236C64.2898 22.628 64.1124 23.188 64.1124 23.916V27.5H62.6284ZM70.8862 27.5V17.42H72.3702V23.426L75.0302 20.556H76.8082L73.8542 23.706L77.2422 27.5H75.3662L72.3702 23.944V27.5H70.8862ZM85.2094 27.668C84.5281 27.668 83.9168 27.514 83.3754 27.206C82.8434 26.898 82.4234 26.4733 82.1154 25.932C81.8168 25.3813 81.6674 24.7467 81.6674 24.028C81.6674 23.3093 81.8168 22.6793 82.1154 22.138C82.4234 21.5873 82.8434 21.158 83.3754 20.85C83.9168 20.542 84.5281 20.388 85.2094 20.388C86.0681 20.388 86.7868 20.612 87.3654 21.06C87.9534 21.508 88.3314 22.1147 88.4994 22.88H86.9454C86.8521 22.4973 86.6468 22.1987 86.3294 21.984C86.0121 21.7693 85.6388 21.662 85.2094 21.662C84.8454 21.662 84.5094 21.7553 84.2014 21.942C83.8934 22.1193 83.6461 22.3853 83.4594 22.74C83.2728 23.0853 83.1794 23.5147 83.1794 24.028C83.1794 24.5413 83.2728 24.9753 83.4594 25.33C83.6461 25.6753 83.8934 25.9413 84.2014 26.128C84.5094 26.3147 84.8454 26.408 85.2094 26.408C85.6388 26.408 86.0121 26.3007 86.3294 26.086C86.6468 25.8713 86.8521 25.568 86.9454 25.176H88.4994C88.3408 25.9227 87.9674 26.5247 87.3794 26.982C86.7914 27.4393 86.0681 27.668 85.2094 27.668ZM93.3569 27.668C92.6942 27.668 92.0969 27.5187 91.5649 27.22C91.0422 26.912 90.6269 26.4873 90.3189 25.946C90.0109 25.3953 89.8569 24.756 89.8569 24.028C89.8569 23.3 90.0109 22.6653 90.3189 22.124C90.6362 21.5733 91.0609 21.1487 91.5929 20.85C92.1249 20.542 92.7176 20.388 93.3709 20.388C94.0336 20.388 94.6262 20.542 95.1489 20.85C95.6809 21.1487 96.1009 21.5733 96.4089 22.124C96.7262 22.6653 96.8849 23.3 96.8849 24.028C96.8849 24.756 96.7262 25.3953 96.4089 25.946C96.1009 26.4873 95.6809 26.912 95.1489 27.22C94.6169 27.5187 94.0196 27.668 93.3569 27.668ZM93.3569 26.394C93.7116 26.394 94.0382 26.3053 94.3369 26.128C94.6449 25.9507 94.8922 25.6893 95.0789 25.344C95.2656 24.9893 95.3589 24.5507 95.3589 24.028C95.3589 23.5053 95.2656 23.0713 95.0789 22.726C94.9016 22.3713 94.6589 22.1053 94.3509 21.928C94.0522 21.7507 93.7256 21.662 93.3709 21.662C93.0162 21.662 92.6849 21.7507 92.3769 21.928C92.0782 22.1053 91.8356 22.3713 91.6489 22.726C91.4622 23.0713 91.3689 23.5053 91.3689 24.028C91.3689 24.5507 91.4622 24.9893 91.6489 25.344C91.8356 25.6893 92.0782 25.9507 92.3769 26.128C92.6756 26.3053 93.0022 26.394 93.3569 26.394ZM98.4898 30.58V20.556H99.8198L99.9738 21.634C100.198 21.3073 100.506 21.018 100.898 20.766C101.29 20.514 101.794 20.388 102.41 20.388C103.082 20.388 103.674 20.5467 104.188 20.864C104.701 21.1813 105.102 21.6153 105.392 22.166C105.69 22.7167 105.84 23.342 105.84 24.042C105.84 24.742 105.69 25.3673 105.392 25.918C105.102 26.4593 104.701 26.8887 104.188 27.206C103.674 27.514 103.077 27.668 102.396 27.668C101.854 27.668 101.374 27.5607 100.954 27.346C100.543 27.1313 100.216 26.828 99.9738 26.436V30.58H98.4898ZM102.144 26.38C102.778 26.38 103.301 26.1653 103.712 25.736C104.122 25.2973 104.328 24.728 104.328 24.028C104.328 23.5707 104.234 23.1647 104.048 22.81C103.861 22.4553 103.604 22.18 103.278 21.984C102.951 21.7787 102.573 21.676 102.144 21.676C101.509 21.676 100.986 21.8953 100.576 22.334C100.174 22.7727 99.9738 23.3373 99.9738 24.028C99.9738 24.728 100.174 25.2973 100.576 25.736C100.986 26.1653 101.509 26.38 102.144 26.38ZM108.285 19.24C108.005 19.24 107.772 19.156 107.585 18.988C107.408 18.8107 107.319 18.5913 107.319 18.33C107.319 18.0687 107.408 17.854 107.585 17.686C107.772 17.5087 108.005 17.42 108.285 17.42C108.565 17.42 108.794 17.5087 108.971 17.686C109.158 17.854 109.251 18.0687 109.251 18.33C109.251 18.5913 109.158 18.8107 108.971 18.988C108.794 19.156 108.565 19.24 108.285 19.24ZM107.543 27.5V20.556H109.027V27.5H107.543ZM114.234 27.668C113.553 27.668 112.946 27.5187 112.414 27.22C111.891 26.912 111.481 26.4873 111.182 25.946C110.883 25.4047 110.734 24.7747 110.734 24.056C110.734 23.328 110.879 22.6887 111.168 22.138C111.467 21.5873 111.877 21.158 112.4 20.85C112.932 20.542 113.548 20.388 114.248 20.388C114.929 20.388 115.522 20.542 116.026 20.85C116.53 21.1487 116.922 21.55 117.202 22.054C117.482 22.558 117.622 23.1133 117.622 23.72C117.622 23.8133 117.617 23.916 117.608 24.028C117.608 24.1307 117.603 24.2473 117.594 24.378H112.19C112.237 25.05 112.456 25.5633 112.848 25.918C113.249 26.2633 113.711 26.436 114.234 26.436C114.654 26.436 115.004 26.3427 115.284 26.156C115.573 25.96 115.788 25.6987 115.928 25.372H117.412C117.225 26.0253 116.852 26.5713 116.292 27.01C115.741 27.4487 115.055 27.668 114.234 27.668ZM114.234 21.606C113.739 21.606 113.301 21.7553 112.918 22.054C112.535 22.3433 112.302 22.782 112.218 23.37H116.138C116.11 22.8287 115.919 22.3993 115.564 22.082C115.209 21.7647 114.766 21.606 114.234 21.606ZM122.326 27.668C121.654 27.668 121.061 27.5093 120.548 27.192C120.034 26.8747 119.633 26.4407 119.344 25.89C119.054 25.3393 118.91 24.714 118.91 24.014C118.91 23.314 119.054 22.6933 119.344 22.152C119.633 21.6013 120.034 21.172 120.548 20.864C121.07 20.5467 121.668 20.388 122.34 20.388C122.89 20.388 123.371 20.4953 123.782 20.71C124.202 20.9247 124.528 21.228 124.762 21.62V17.42H126.246V27.5H124.916L124.762 26.422C124.538 26.7487 124.23 27.038 123.838 27.29C123.446 27.542 122.942 27.668 122.326 27.668ZM122.592 26.38C123.226 26.38 123.744 26.1607 124.146 25.722C124.556 25.2833 124.762 24.7187 124.762 24.028C124.762 23.328 124.556 22.7633 124.146 22.334C123.744 21.8953 123.226 21.676 122.592 21.676C121.957 21.676 121.434 21.8953 121.024 22.334C120.613 22.7633 120.408 23.328 120.408 24.028C120.408 24.4853 120.501 24.8913 120.688 25.246C120.874 25.6007 121.131 25.8807 121.458 26.086C121.794 26.282 122.172 26.38 122.592 26.38ZM134.556 27.5C133.875 27.5 133.333 27.3367 132.932 27.01C132.531 26.674 132.33 26.0813 132.33 25.232V21.802H131.14V20.556H132.33L132.512 18.792H133.814V20.556H135.774V21.802H133.814V25.232C133.814 25.6147 133.893 25.8807 134.052 26.03C134.22 26.17 134.505 26.24 134.906 26.24H135.704V27.5H134.556ZM140.374 27.668C139.712 27.668 139.114 27.5187 138.582 27.22C138.06 26.912 137.644 26.4873 137.336 25.946C137.028 25.3953 136.874 24.756 136.874 24.028C136.874 23.3 137.028 22.6653 137.336 22.124C137.654 21.5733 138.078 21.1487 138.61 20.85C139.142 20.542 139.735 20.388 140.388 20.388C141.051 20.388 141.644 20.542 142.166 20.85C142.698 21.1487 143.118 21.5733 143.426 22.124C143.744 22.6653 143.902 23.3 143.902 24.028C143.902 24.756 143.744 25.3953 143.426 25.946C143.118 26.4873 142.698 26.912 142.166 27.22C141.634 27.5187 141.037 27.668 140.374 27.668ZM140.374 26.394C140.729 26.394 141.056 26.3053 141.354 26.128C141.662 25.9507 141.91 25.6893 142.096 25.344C142.283 24.9893 142.376 24.5507 142.376 24.028C142.376 23.5053 142.283 23.0713 142.096 22.726C141.919 22.3713 141.676 22.1053 141.368 21.928C141.07 21.7507 140.743 21.662 140.388 21.662C140.034 21.662 139.702 21.7507 139.394 21.928C139.096 22.1053 138.853 22.3713 138.666 22.726C138.48 23.0713 138.386 23.5053 138.386 24.028C138.386 24.5507 138.48 24.9893 138.666 25.344C138.853 25.6893 139.096 25.9507 139.394 26.128C139.693 26.3053 140.02 26.394 140.374 26.394ZM152.325 27.668C151.643 27.668 151.032 27.514 150.491 27.206C149.959 26.898 149.539 26.4733 149.231 25.932C148.932 25.3813 148.783 24.7467 148.783 24.028C148.783 23.3093 148.932 22.6793 149.231 22.138C149.539 21.5873 149.959 21.158 150.491 20.85C151.032 20.542 151.643 20.388 152.325 20.388C153.183 20.388 153.902 20.612 154.481 21.06C155.069 21.508 155.447 22.1147 155.615 22.88H154.061C153.967 22.4973 153.762 22.1987 153.445 21.984C153.127 21.7693 152.754 21.662 152.325 21.662C151.961 21.662 151.625 21.7553 151.317 21.942C151.009 22.1193 150.761 22.3853 150.575 22.74C150.388 23.0853 150.295 23.5147 150.295 24.028C150.295 24.5413 150.388 24.9753 150.575 25.33C150.761 25.6753 151.009 25.9413 151.317 26.128C151.625 26.3147 151.961 26.408 152.325 26.408C152.754 26.408 153.127 26.3007 153.445 26.086C153.762 25.8713 153.967 25.568 154.061 25.176H155.615C155.456 25.9227 155.083 26.5247 154.495 26.982C153.907 27.4393 153.183 27.668 152.325 27.668ZM157.224 27.5V17.42H158.708V27.5H157.224ZM161.427 19.24C161.147 19.24 160.914 19.156 160.727 18.988C160.55 18.8107 160.461 18.5913 160.461 18.33C160.461 18.0687 160.55 17.854 160.727 17.686C160.914 17.5087 161.147 17.42 161.427 17.42C161.707 17.42 161.936 17.5087 162.113 17.686C162.3 17.854 162.393 18.0687 162.393 18.33C162.393 18.5913 162.3 18.8107 162.113 18.988C161.936 19.156 161.707 19.24 161.427 19.24ZM160.685 27.5V20.556H162.169V27.5H160.685ZM164.128 30.58V20.556H165.458L165.612 21.634C165.836 21.3073 166.144 21.018 166.536 20.766C166.928 20.514 167.432 20.388 168.048 20.388C168.72 20.388 169.313 20.5467 169.826 20.864C170.34 21.1813 170.741 21.6153 171.03 22.166C171.329 22.7167 171.478 23.342 171.478 24.042C171.478 24.742 171.329 25.3673 171.03 25.918C170.741 26.4593 170.34 26.8887 169.826 27.206C169.313 27.514 168.716 27.668 168.034 27.668C167.493 27.668 167.012 27.5607 166.592 27.346C166.182 27.1313 165.855 26.828 165.612 26.436V30.58H164.128ZM167.782 26.38C168.417 26.38 168.94 26.1653 169.35 25.736C169.761 25.2973 169.966 24.728 169.966 24.028C169.966 23.5707 169.873 23.1647 169.686 22.81C169.5 22.4553 169.243 22.18 168.916 21.984C168.59 21.7787 168.212 21.676 167.782 21.676C167.148 21.676 166.625 21.8953 166.214 22.334C165.813 22.7727 165.612 23.3373 165.612 24.028C165.612 24.728 165.813 25.2973 166.214 25.736C166.625 26.1653 167.148 26.38 167.782 26.38ZM176.99 27.668C176.448 27.668 175.968 27.5607 175.548 27.346C175.137 27.1313 174.81 26.828 174.568 26.436L174.414 27.5H173.084V17.42H174.568V21.634C174.792 21.3073 175.1 21.018 175.492 20.766C175.884 20.514 176.388 20.388 177.004 20.388C177.676 20.388 178.268 20.5467 178.782 20.864C179.295 21.1813 179.696 21.6153 179.986 22.166C180.284 22.7167 180.434 23.342 180.434 24.042C180.434 24.742 180.284 25.3673 179.986 25.918C179.696 26.4593 179.295 26.8887 178.782 27.206C178.268 27.514 177.671 27.668 176.99 27.668ZM176.738 26.38C177.372 26.38 177.895 26.1653 178.306 25.736C178.716 25.2973 178.922 24.728 178.922 24.028C178.922 23.5707 178.828 23.1647 178.642 22.81C178.455 22.4553 178.198 22.18 177.872 21.984C177.545 21.7787 177.167 21.676 176.738 21.676C176.103 21.676 175.58 21.8953 175.17 22.334C174.768 22.7727 174.568 23.3373 174.568 24.028C174.568 24.728 174.768 25.2973 175.17 25.736C175.58 26.1653 176.103 26.38 176.738 26.38ZM185.287 27.668C184.624 27.668 184.027 27.5187 183.495 27.22C182.972 26.912 182.557 26.4873 182.249 25.946C181.941 25.3953 181.787 24.756 181.787 24.028C181.787 23.3 181.941 22.6653 182.249 22.124C182.566 21.5733 182.991 21.1487 183.523 20.85C184.055 20.542 184.647 20.388 185.301 20.388C185.963 20.388 186.556 20.542 187.079 20.85C187.611 21.1487 188.031 21.5733 188.339 22.124C188.656 22.6653 188.815 23.3 188.815 24.028C188.815 24.756 188.656 25.3953 188.339 25.946C188.031 26.4873 187.611 26.912 187.079 27.22C186.547 27.5187 185.949 27.668 185.287 27.668ZM185.287 26.394C185.641 26.394 185.968 26.3053 186.267 26.128C186.575 25.9507 186.822 25.6893 187.009 25.344C187.195 24.9893 187.289 24.5507 187.289 24.028C187.289 23.5053 187.195 23.0713 187.009 22.726C186.831 22.3713 186.589 22.1053 186.281 21.928C185.982 21.7507 185.655 21.662 185.301 21.662C184.946 21.662 184.615 21.7507 184.307 21.928C184.008 22.1053 183.765 22.3713 183.579 22.726C183.392 23.0713 183.299 23.5053 183.299 24.028C183.299 24.5507 183.392 24.9893 183.579 25.344C183.765 25.6893 184.008 25.9507 184.307 26.128C184.605 26.3053 184.932 26.394 185.287 26.394ZM192.771 27.668C192.183 27.668 191.698 27.57 191.315 27.374C190.933 27.178 190.648 26.9213 190.461 26.604C190.275 26.2773 190.181 25.9227 190.181 25.54C190.181 24.868 190.443 24.336 190.965 23.944C191.488 23.552 192.235 23.356 193.205 23.356H195.025V23.23C195.025 22.6887 194.876 22.2827 194.577 22.012C194.288 21.7413 193.91 21.606 193.443 21.606C193.033 21.606 192.673 21.7087 192.365 21.914C192.067 22.11 191.885 22.404 191.819 22.796H190.335C190.382 22.292 190.55 21.8627 190.839 21.508C191.138 21.144 191.511 20.8687 191.959 20.682C192.417 20.486 192.916 20.388 193.457 20.388C194.428 20.388 195.179 20.6447 195.711 21.158C196.243 21.662 196.509 22.3527 196.509 23.23V27.5H195.221L195.095 26.31C194.899 26.6927 194.615 27.0147 194.241 27.276C193.868 27.5373 193.378 27.668 192.771 27.668ZM193.065 26.464C193.467 26.464 193.803 26.3707 194.073 26.184C194.353 25.988 194.568 25.7313 194.717 25.414C194.876 25.0967 194.974 24.7467 195.011 24.364H193.359C192.771 24.364 192.351 24.4667 192.099 24.672C191.857 24.8773 191.735 25.134 191.735 25.442C191.735 25.7593 191.852 26.0113 192.085 26.198C192.328 26.3753 192.655 26.464 193.065 26.464ZM198.24 27.5V20.556H199.57L199.696 21.872C199.938 21.4147 200.274 21.0553 200.704 20.794C201.142 20.5233 201.67 20.388 202.286 20.388V21.942H201.88C201.469 21.942 201.1 22.012 200.774 22.152C200.456 22.2827 200.2 22.5113 200.004 22.838C199.817 23.1553 199.724 23.5987 199.724 24.168V27.5H198.24ZM206.531 27.668C205.859 27.668 205.266 27.5093 204.753 27.192C204.239 26.8747 203.838 26.4407 203.549 25.89C203.259 25.3393 203.115 24.714 203.115 24.014C203.115 23.314 203.259 22.6933 203.549 22.152C203.838 21.6013 204.239 21.172 204.753 20.864C205.275 20.5467 205.873 20.388 206.545 20.388C207.095 20.388 207.576 20.4953 207.987 20.71C208.407 20.9247 208.733 21.228 208.967 21.62V17.42H210.451V27.5H209.121L208.967 26.422C208.743 26.7487 208.435 27.038 208.043 27.29C207.651 27.542 207.147 27.668 206.531 27.668ZM206.797 26.38C207.431 26.38 207.949 26.1607 208.351 25.722C208.761 25.2833 208.967 24.7187 208.967 24.028C208.967 23.328 208.761 22.7633 208.351 22.334C207.949 21.8953 207.431 21.676 206.797 21.676C206.162 21.676 205.639 21.8953 205.229 22.334C204.818 22.7633 204.613 23.328 204.613 24.028C204.613 24.4853 204.706 24.8913 204.893 25.246C205.079 25.6007 205.336 25.8807 205.663 26.086C205.999 26.282 206.377 26.38 206.797 26.38Z" fill="white"/>
</svg>
