<svg width="184" height="45" viewBox="0 0 184 45" fill="none" xmlns="http://www.w3.org/2000/svg">
<rect width="184" height="45" rx="10" fill="black"/>
<path d="M51.0077 27.5V17.7H54.3817C55.1563 17.7 55.791 17.8307 56.2857 18.092C56.7897 18.3533 57.163 18.708 57.4057 19.156C57.6483 19.5947 57.7697 20.0847 57.7697 20.626C57.7697 21.2327 57.6063 21.7833 57.2797 22.278C56.9623 22.7727 56.463 23.1273 55.7817 23.342L57.8677 27.5H56.1457L54.2417 23.552H52.4917V27.5H51.0077ZM52.4917 22.432H54.2977C54.9697 22.432 55.4597 22.2687 55.7677 21.942C56.085 21.6153 56.2437 21.1907 56.2437 20.668C56.2437 20.1453 56.0897 19.73 55.7817 19.422C55.4737 19.1047 54.9743 18.946 54.2837 18.946H52.4917V22.432ZM62.2934 27.668C61.6121 27.668 61.0054 27.5187 60.4734 27.22C59.9508 26.912 59.5401 26.4873 59.2414 25.946C58.9428 25.4047 58.7934 24.7747 58.7934 24.056C58.7934 23.328 58.9381 22.6887 59.2274 22.138C59.5261 21.5873 59.9368 21.158 60.4594 20.85C60.9914 20.542 61.6074 20.388 62.3074 20.388C62.9888 20.388 63.5814 20.542 64.0854 20.85C64.5894 21.1487 64.9814 21.55 65.2614 22.054C65.5414 22.558 65.6814 23.1133 65.6814 23.72C65.6814 23.8133 65.6768 23.916 65.6674 24.028C65.6674 24.1307 65.6628 24.2473 65.6534 24.378H60.2494C60.2961 25.05 60.5154 25.5633 60.9074 25.918C61.3088 26.2633 61.7708 26.436 62.2934 26.436C62.7134 26.436 63.0634 26.3427 63.3434 26.156C63.6328 25.96 63.8474 25.6987 63.9874 25.372H65.4714C65.2848 26.0253 64.9114 26.5713 64.3514 27.01C63.8008 27.4487 63.1148 27.668 62.2934 27.668ZM62.2934 21.606C61.7988 21.606 61.3601 21.7553 60.9774 22.054C60.5948 22.3433 60.3614 22.782 60.2774 23.37H64.1974C64.1694 22.8287 63.9781 22.3993 63.6234 22.082C63.2688 21.7647 62.8254 21.606 62.2934 21.606ZM69.9675 25.372C69.6035 25.372 69.2675 25.33 68.9595 25.246L68.3575 25.834C68.4602 25.8993 68.5862 25.9553 68.7355 26.002C68.8848 26.0487 69.0948 26.0907 69.3655 26.128C69.6362 26.1653 70.0048 26.2027 70.4715 26.24C71.3955 26.324 72.0628 26.548 72.4735 26.912C72.8842 27.2667 73.0895 27.7427 73.0895 28.34C73.0895 28.7507 72.9775 29.138 72.7535 29.502C72.5388 29.8753 72.1982 30.174 71.7315 30.398C71.2742 30.6313 70.6862 30.748 69.9675 30.748C68.9968 30.748 68.2082 30.5613 67.6015 30.188C67.0042 29.824 66.7055 29.2687 66.7055 28.522C66.7055 28.2327 66.7802 27.9433 66.9295 27.654C67.0882 27.374 67.3355 27.108 67.6715 26.856C67.4755 26.772 67.3028 26.6833 67.1535 26.59C67.0135 26.4873 66.8875 26.3847 66.7755 26.282V25.946L67.9795 24.714C67.4382 24.2473 67.1675 23.636 67.1675 22.88C67.1675 22.4227 67.2748 22.0073 67.4895 21.634C67.7135 21.2513 68.0355 20.948 68.4555 20.724C68.8755 20.5 69.3795 20.388 69.9675 20.388C70.3595 20.388 70.7235 20.444 71.0595 20.556H73.6495V21.536L72.4175 21.606C72.6415 21.9887 72.7535 22.4133 72.7535 22.88C72.7535 23.3467 72.6415 23.7667 72.4175 24.14C72.2028 24.5133 71.8855 24.812 71.4655 25.036C71.0548 25.26 70.5555 25.372 69.9675 25.372ZM69.9675 24.21C70.3968 24.21 70.7422 24.098 71.0035 23.874C71.2742 23.6407 71.4095 23.314 71.4095 22.894C71.4095 22.4647 71.2742 22.138 71.0035 21.914C70.7422 21.69 70.3968 21.578 69.9675 21.578C69.5288 21.578 69.1742 21.69 68.9035 21.914C68.6422 22.138 68.5115 22.4647 68.5115 22.894C68.5115 23.314 68.6422 23.6407 68.9035 23.874C69.1742 24.098 69.5288 24.21 69.9675 24.21ZM68.1055 28.382C68.1055 28.7833 68.2828 29.082 68.6375 29.278C68.9922 29.4833 69.4355 29.586 69.9675 29.586C70.4808 29.586 70.8962 29.474 71.2135 29.25C71.5308 29.0353 71.6895 28.746 71.6895 28.382C71.6895 28.1113 71.5822 27.878 71.3675 27.682C71.1528 27.4953 70.7468 27.3787 70.1495 27.332C69.7015 27.304 69.3048 27.262 68.9595 27.206C68.6328 27.3833 68.4088 27.5747 68.2875 27.78C68.1662 27.9853 68.1055 28.186 68.1055 28.382ZM77.9477 27.668C77.2664 27.668 76.6597 27.5187 76.1277 27.22C75.6051 26.912 75.1944 26.4873 74.8957 25.946C74.5971 25.4047 74.4477 24.7747 74.4477 24.056C74.4477 23.328 74.5924 22.6887 74.8817 22.138C75.1804 21.5873 75.5911 21.158 76.1137 20.85C76.6457 20.542 77.2617 20.388 77.9617 20.388C78.6431 20.388 79.2357 20.542 79.7397 20.85C80.2437 21.1487 80.6357 21.55 80.9157 22.054C81.1957 22.558 81.3357 23.1133 81.3357 23.72C81.3357 23.8133 81.3311 23.916 81.3217 24.028C81.3217 24.1307 81.3171 24.2473 81.3077 24.378H75.9037C75.9504 25.05 76.1697 25.5633 76.5617 25.918C76.9631 26.2633 77.4251 26.436 77.9477 26.436C78.3677 26.436 78.7177 26.3427 78.9977 26.156C79.2871 25.96 79.5017 25.6987 79.6417 25.372H81.1257C80.9391 26.0253 80.5657 26.5713 80.0057 27.01C79.4551 27.4487 78.7691 27.668 77.9477 27.668ZM77.9477 21.606C77.4531 21.606 77.0144 21.7553 76.6317 22.054C76.2491 22.3433 76.0157 22.782 75.9317 23.37H79.8517C79.8237 22.8287 79.6324 22.3993 79.2777 22.082C78.9231 21.7647 78.4797 21.606 77.9477 21.606ZM82.8755 27.5V20.556H84.1915L84.3035 21.774C84.5182 21.3447 84.8308 21.0087 85.2415 20.766C85.6615 20.514 86.1422 20.388 86.6835 20.388C87.5235 20.388 88.1815 20.6493 88.6575 21.172C89.1428 21.6947 89.3855 22.474 89.3855 23.51V27.5H87.9155V23.664C87.9155 22.32 87.3648 21.648 86.2635 21.648C85.7128 21.648 85.2555 21.844 84.8915 22.236C84.5368 22.628 84.3595 23.188 84.3595 23.916V27.5H82.8755ZM94.3813 27.668C93.7 27.668 93.0933 27.5187 92.5613 27.22C92.0386 26.912 91.628 26.4873 91.3293 25.946C91.0306 25.4047 90.8813 24.7747 90.8813 24.056C90.8813 23.328 91.026 22.6887 91.3153 22.138C91.614 21.5873 92.0246 21.158 92.5473 20.85C93.0793 20.542 93.6953 20.388 94.3953 20.388C95.0766 20.388 95.6693 20.542 96.1733 20.85C96.6773 21.1487 97.0693 21.55 97.3493 22.054C97.6293 22.558 97.7693 23.1133 97.7693 23.72C97.7693 23.8133 97.7646 23.916 97.7553 24.028C97.7553 24.1307 97.7506 24.2473 97.7413 24.378H92.3373C92.384 25.05 92.6033 25.5633 92.9953 25.918C93.3966 26.2633 93.8586 26.436 94.3813 26.436C94.8013 26.436 95.1513 26.3427 95.4313 26.156C95.7206 25.96 95.9353 25.6987 96.0753 25.372H97.5593C97.3726 26.0253 96.9993 26.5713 96.4393 27.01C95.8886 27.4487 95.2026 27.668 94.3813 27.668ZM94.3813 21.606C93.8866 21.606 93.448 21.7553 93.0653 22.054C92.6826 22.3433 92.4493 22.782 92.3653 23.37H96.2853C96.2573 22.8287 96.066 22.3993 95.7113 22.082C95.3566 21.7647 94.9133 21.606 94.3813 21.606ZM99.3091 27.5V20.556H100.639L100.765 21.872C101.008 21.4147 101.344 21.0553 101.773 20.794C102.212 20.5233 102.739 20.388 103.355 20.388V21.942H102.949C102.538 21.942 102.17 22.012 101.843 22.152C101.526 22.2827 101.269 22.5113 101.073 22.838C100.886 23.1553 100.793 23.5987 100.793 24.168V27.5H99.3091ZM106.979 27.668C106.391 27.668 105.906 27.57 105.523 27.374C105.141 27.178 104.856 26.9213 104.669 26.604C104.483 26.2773 104.389 25.9227 104.389 25.54C104.389 24.868 104.651 24.336 105.173 23.944C105.696 23.552 106.443 23.356 107.413 23.356H109.233V23.23C109.233 22.6887 109.084 22.2827 108.785 22.012C108.496 21.7413 108.118 21.606 107.651 21.606C107.241 21.606 106.881 21.7087 106.573 21.914C106.275 22.11 106.093 22.404 106.027 22.796H104.543C104.59 22.292 104.758 21.8627 105.047 21.508C105.346 21.144 105.719 20.8687 106.167 20.682C106.625 20.486 107.124 20.388 107.665 20.388C108.636 20.388 109.387 20.6447 109.919 21.158C110.451 21.662 110.717 22.3527 110.717 23.23V27.5H109.429L109.303 26.31C109.107 26.6927 108.823 27.0147 108.449 27.276C108.076 27.5373 107.586 27.668 106.979 27.668ZM107.273 26.464C107.675 26.464 108.011 26.3707 108.281 26.184C108.561 25.988 108.776 25.7313 108.925 25.414C109.084 25.0967 109.182 24.7467 109.219 24.364H107.567C106.979 24.364 106.559 24.4667 106.307 24.672C106.065 24.8773 105.943 25.134 105.943 25.442C105.943 25.7593 106.06 26.0113 106.293 26.198C106.536 26.3753 106.863 26.464 107.273 26.464ZM115.223 27.5C114.542 27.5 114 27.3367 113.599 27.01C113.198 26.674 112.997 26.0813 112.997 25.232V21.802H111.807V20.556H112.997L113.179 18.792H114.481V20.556H116.441V21.802H114.481V25.232C114.481 25.6147 114.56 25.8807 114.719 26.03C114.887 26.17 115.172 26.24 115.573 26.24H116.371V27.5H115.223ZM121.041 27.668C120.36 27.668 119.753 27.5187 119.221 27.22C118.699 26.912 118.288 26.4873 117.989 25.946C117.691 25.4047 117.541 24.7747 117.541 24.056C117.541 23.328 117.686 22.6887 117.975 22.138C118.274 21.5873 118.685 21.158 119.207 20.85C119.739 20.542 120.355 20.388 121.055 20.388C121.737 20.388 122.329 20.542 122.833 20.85C123.337 21.1487 123.729 21.55 124.009 22.054C124.289 22.558 124.429 23.1133 124.429 23.72C124.429 23.8133 124.425 23.916 124.415 24.028C124.415 24.1307 124.411 24.2473 124.401 24.378H118.997C119.044 25.05 119.263 25.5633 119.655 25.918C120.057 26.2633 120.519 26.436 121.041 26.436C121.461 26.436 121.811 26.3427 122.091 26.156C122.381 25.96 122.595 25.6987 122.735 25.372H124.219C124.033 26.0253 123.659 26.5713 123.099 27.01C122.549 27.4487 121.863 27.668 121.041 27.668ZM121.041 21.606C120.547 21.606 120.108 21.7553 119.725 22.054C119.343 22.3433 119.109 22.782 119.025 23.37H122.945C122.917 22.8287 122.726 22.3993 122.371 22.082C122.017 21.7647 121.573 21.606 121.041 21.606ZM129.133 27.668C128.461 27.668 127.869 27.5093 127.355 27.192C126.842 26.8747 126.441 26.4407 126.151 25.89C125.862 25.3393 125.717 24.714 125.717 24.014C125.717 23.314 125.862 22.6933 126.151 22.152C126.441 21.6013 126.842 21.172 127.355 20.864C127.878 20.5467 128.475 20.388 129.147 20.388C129.698 20.388 130.179 20.4953 130.589 20.71C131.009 20.9247 131.336 21.228 131.569 21.62V17.42H133.053V27.5H131.723L131.569 26.422C131.345 26.7487 131.037 27.038 130.645 27.29C130.253 27.542 129.749 27.668 129.133 27.668ZM129.399 26.38C130.034 26.38 130.552 26.1607 130.953 25.722C131.364 25.2833 131.569 24.7187 131.569 24.028C131.569 23.328 131.364 22.7633 130.953 22.334C130.552 21.8953 130.034 21.676 129.399 21.676C128.765 21.676 128.242 21.8953 127.831 22.334C127.421 22.7633 127.215 23.328 127.215 24.028C127.215 24.4853 127.309 24.8913 127.495 25.246C127.682 25.6007 127.939 25.8807 128.265 26.086C128.601 26.282 128.979 26.38 129.399 26.38Z" fill="white"/>
</svg>
